<?xml version="1.0" standalone="no"?>
<!DOCTYPE svg PUBLIC "-//W3C//DTD SVG 20010904//EN"
 "http://www.w3.org/TR/2001/REC-SVG-20010904/DTD/svg10.dtd">
<svg version="1.0" xmlns="http://www.w3.org/2000/svg"
 width="300.000000pt" height="225.000000pt" viewBox="0 0 300.000000 225.000000"
 preserveAspectRatio="xMidYMid meet">
<metadata>
Created by potrace 1.10, written by Peter Selinger 2001-2011
</metadata>
<g transform="translate(0.000000,225.000000) scale(0.100000,-0.100000)"
fill="#000000" stroke="none">
<path d="M1350 1915 l0 -285 -285 0 -285 0 0 -150 0 -150 285 0 285 0 0 -640
0 -640 150 0 150 0 0 640 0 640 285 0 285 0 0 150 0 150 -285 0 -285 0 0 285
0 285 -150 0 -150 0 0 -285z m282 -17 l3 -283 283 0 282 0 0 -132 0 -133 -282
-2 -283 -3 -3 -637 -2 -638 -130 0 -130 0 -2 638 -3 637 -282 3 -283 2 0 133
0 132 282 0 283 0 3 283 2 282 130 0 130 0 2 -282z"/>
<path d="M1063 1535 c-37 -16 -63 -60 -63 -108 0 -59 57 -87 107 -52 18 13 22
13 33 0 25 -31 80 -12 80 27 0 10 6 18 13 18 9 0 12 -10 9 -30 -3 -23 0 -30
12 -30 10 0 16 9 17 23 1 12 2 39 3 60 3 41 -11 45 -30 9 l-11 -21 -19 25
c-17 22 -22 24 -46 15 -16 -6 -30 -21 -34 -35 -14 -58 -76 -73 -103 -25 -13
23 -12 30 5 64 23 47 48 65 65 48 9 -9 9 -16 1 -26 -15 -18 -3 -30 15 -16 18
16 16 47 -5 58 -11 6 -28 5 -49 -4z m129 -124 c19 -7 19 -8 3 -24 -23 -24 -45
-5 -45 37 1 27 2 28 11 13 6 -10 20 -22 31 -26z"/>
<path d="M1424 1535 c-40 -17 -53 -34 -63 -89 -13 -69 -31 -82 -31 -23 0 52
-20 64 -41 25 -12 -22 -11 -22 6 -8 17 14 18 13 11 -28 -5 -34 -3 -44 10 -49
11 -4 23 2 33 15 16 22 16 22 29 2 18 -29 85 -28 112 3 48 51 54 57 59 51 3
-3 6 -20 6 -37 0 -25 4 -32 19 -32 11 0 21 6 24 14 3 8 0 11 -7 7 -7 -5 -11 5
-11 29 0 20 -4 34 -9 31 -5 -3 -11 3 -14 14 -6 25 -27 26 -27 2 0 -25 -11 -34
-26 -21 -18 15 -59 7 -59 -11 0 -8 11 -17 25 -20 l25 -6 -27 -18 c-21 -14 -31
-15 -47 -6 -46 24 -49 82 -8 128 25 27 43 28 59 2 16 -25 28 -26 28 -2 0 28
-40 42 -76 27z"/>
<path d="M1758 1531 c-25 -12 -36 -27 -47 -61 -26 -85 -30 -92 -53 -88 -28 4
-36 28 -9 28 22 0 46 34 36 50 -3 6 -17 10 -31 10 -19 0 -28 -8 -40 -36 -14
-33 -14 -38 2 -55 22 -24 50 -24 70 0 16 18 17 18 35 0 34 -34 129 -15 129 26
0 7 9 17 20 20 11 3 20 11 20 17 0 6 -6 5 -16 -3 -12 -10 -17 -10 -23 0 -11
17 -66 10 -66 -9 0 -8 11 -17 25 -20 l25 -6 -27 -18 c-26 -17 -30 -17 -53 -2
-35 23 -35 87 0 121 30 31 51 32 66 4 8 -15 14 -18 22 -10 7 7 7 14 -2 24 -19
23 -48 26 -83 8z"/>
<path d="M1904 1519 c-15 -17 -15 -21 -1 -43 15 -22 15 -25 -3 -41 -30 -27
-26 -63 6 -71 63 -16 107 34 68 77 -16 18 -16 20 -1 37 17 19 23 51 10 54 -36
7 -65 2 -79 -13z m66 -13 c0 -18 -27 -39 -40 -31 -5 3 -10 15 -10 26 0 14 7
19 25 19 15 0 25 -6 25 -14z m-10 -117 c-13 -23 -48 -25 -56 -4 -4 8 2 27 11
42 l18 27 18 -23 c14 -17 16 -27 9 -42z"/>
</g>
</svg>
